<?xml version="1.0" encoding="UTF-8"?>
<svg version="1.1" xmlns="http://www.w3.org/2000/svg" width="394" height="394">
<path d="M0 0 C1.30445068 0.30550781 1.30445068 0.30550781 2.63525391 0.6171875 C45.0868815 10.81502056 84.10589571 35.5528437 111 70 C111.42152344 70.53447754 111.84304688 71.06895508 112.27734375 71.61962891 C131.08469208 95.63806374 143.30580396 123.30346793 150 153 C150.26466064 154.1139917 150.26466064 154.1139917 150.53466797 155.25048828 C156.37034942 180.83147844 155.16567895 211.66648117 149 237 C148.79632813 237.86963379 148.59265625 238.73926758 148.3828125 239.63525391 C138.18497944 282.0868815 113.4471563 321.10589571 79 348 C78.46552246 348.42152344 77.93104492 348.84304688 77.38037109 349.27734375 C53.36193626 368.08469208 25.69653207 380.30580396 -4 387 C-5.1139917 387.26466064 -5.1139917 387.26466064 -6.25048828 387.53466797 C-31.83147844 393.37034942 -62.66648117 392.16567895 -88 386 C-88.86963379 385.79632813 -89.73926758 385.59265625 -90.63525391 385.3828125 C-133.0868815 375.18497944 -172.10589571 350.4471563 -199 316 C-199.42152344 315.46552246 -199.84304687 314.93104492 -200.27734375 314.38037109 C-219.08469208 290.36193626 -231.30580396 262.69653207 -238 233 C-238.17644043 232.25733887 -238.35288086 231.51467773 -238.53466797 230.74951172 C-244.37034942 205.16852156 -243.16567895 174.33351883 -237 149 C-236.69449219 147.69554932 -236.69449219 147.69554932 -236.3828125 146.36474609 C-226.18497944 103.9131185 -201.4471563 64.89410429 -167 38 C-166.46552246 37.57847656 -165.93104492 37.15695313 -165.38037109 36.72265625 C-141.36193626 17.91530792 -113.69653207 5.69419604 -84 -1 C-83.25733887 -1.17644043 -82.51467773 -1.35288086 -81.74951172 -1.53466797 C-56.16852156 -7.37034942 -25.33351883 -6.16567895 0 0 Z " fill="#000000" transform="translate(241,4)"/>
<path d="M0 0 C4.78656952 3.80971859 7.87920305 7.34558371 8.75 13.5 C9.32447328 16.42305519 9.80003443 17.23994018 12.2265625 19.06640625 C13.99897854 20.06763832 15.78179293 21.05067217 17.57421875 22.015625 C21.58695392 24.30861652 24.31781058 26.75014253 25.6015625 31.3828125 C25.93169524 34.59854989 25.69749507 36.59208135 23.73046875 39.2109375 C19.8184089 42.8315798 16.19233473 44.02931007 11.0625 45.4375 C9.95413577 47.32066159 9.95413577 47.32066159 9.0625 49.4375 C5.96315234 51.88814699 3.52381608 53.31789954 -0.3125 54.3125 C-3.70202787 55.36442244 -5.03988215 56.1511793 -7.6875 58.3125 C-15.84031496 64.79985665 -25.82772817 66.56083665 -36.015625 66.5703125 C-36.99459747 66.57174759 -36.99459747 66.57174759 -37.99334717 66.57321167 C-39.36145119 66.57388775 -40.72955852 66.57207366 -42.09765625 66.56787109 C-44.19538483 66.56247974 -46.29290269 66.56785311 -48.390625 66.57421875 C-49.72395881 66.57355855 -51.05729248 66.57227858 -52.390625 66.5703125 C-53.59879883 66.56918457 -54.80697266 66.56805664 -56.05175781 66.56689453 C-58.9375 66.4375 -58.9375 66.4375 -60.9375 65.4375 C-63.31065932 65.17059211 -65.68609023 64.92372364 -68.0625 64.6875 C-75.48122646 63.77931822 -80.52105914 62.3167592 -85.5234375 56.63671875 C-90.06989277 49.96774707 -90.09285462 42.2228127 -88.9375 34.4375 C-87.54397757 31.61201315 -86.40092498 30.46982561 -83.9375 28.4375 C-84.25847656 27.86902344 -84.57945312 27.30054687 -84.91015625 26.71484375 C-86.58751302 22.99659662 -86.64343796 19.43068439 -85.9375 15.4375 C-83.38481694 12.10483045 -80.84677522 9.92964132 -76.9375 8.4375 C-73.3890457 8.37828861 -69.89089326 8.56833459 -66.34765625 8.7578125 C-62.24325987 8.37229073 -60.95939824 7.13580123 -57.9375 4.4375 C-51.8849423 1.41122115 -44.67913218 1.23034567 -38.26171875 3.30078125 C-36.10397062 4.27194448 -34.02838299 5.33212874 -31.9375 6.4375 C-30.9475 6.7675 -29.9575 7.0975 -28.9375 7.4375 C-28.2775 6.509375 -27.6175 5.58125 -26.9375 4.625 C-20.7799986 -2.63021753 -8.41868359 -4.26448601 0 0 Z " fill="#70C24D" transform="translate(228.9375,93.5625)"/>
<path d="M0 0 C5.93323926 4.13096207 11.27513357 8.93088845 16.59765625 13.80859375 C17.13551758 14.29054199 17.67337891 14.77249023 18.22753906 15.26904297 C25.57860323 21.89325519 30.94878113 27.80074243 31.890625 37.97265625 C32.01437193 43.0050314 31.67676449 47.57088506 30.55859375 52.47265625 C29.33838392 58.27165168 29.61908358 63.79410038 29.84765625 69.68359375 C30.03483448 80.25432292 29.32089548 87.61815132 21.875 95.671875 C13.05450505 103.2189227 0.2116031 105.71367476 -10.90234375 107.62109375 C-12.1047168 107.83338623 -13.30708984 108.04567871 -14.54589844 108.2644043 C-25.22637761 110.02301752 -35.61171793 110.33411124 -46.40234375 109.80859375 C-46.40234375 108.81859375 -46.40234375 107.82859375 -46.40234375 106.80859375 C-45.16484375 106.7828125 -43.92734375 106.75703125 -42.65234375 106.73046875 C-8.99555243 106.14270818 -8.99555243 106.14270818 20.08203125 91.69921875 C26.01417845 84.29932379 26.76829237 76.63348197 26.66015625 67.43359375 C26.65338867 66.32951172 26.65338867 66.32951172 26.64648438 65.203125 C26.63480767 63.40491217 26.61687636 61.60674178 26.59765625 59.80859375 C25.49357422 60.29972656 25.49357422 60.29972656 24.3671875 60.80078125 C21.73437483 61.75884284 20.04512003 62.02715184 17.28515625 61.93359375 C16.06828125 61.89234375 14.85140625 61.85109375 13.59765625 61.80859375 C12.84765625 60.18359375 12.84765625 60.18359375 12.59765625 57.80859375 C14.62057171 54.19624471 16.13637504 52.11611455 19.59765625 49.80859375 C23.35464182 49.43289519 24.35132101 49.64437025 27.59765625 51.80859375 C28.52793921 36.84612733 28.52793921 36.84612733 22.11328125 23.91796875 C9.57447966 10.66649706 -3.96586228 0.85845397 -21.33984375 -4.87890625 C-22.44263672 -5.25595703 -23.54542969 -5.63300781 -24.68164062 -6.02148438 C-35.18431196 -9.57194495 -45.27468831 -12.73524149 -56.40234375 -13.19140625 C-57.04510254 -13.2186377 -57.68786133 -13.24586914 -58.35009766 -13.27392578 C-67.87439499 -13.62553091 -76.2216428 -13.05388652 -85.40234375 -10.19140625 C-86.73340997 -9.84913208 -88.06595351 -9.51226451 -89.40234375 -9.19140625 C-88.89703125 -8.62292969 -88.39171875 -8.05445312 -87.87109375 -7.46875 C-82.5575421 -1.15363604 -82.5575421 -1.15363604 -81.77734375 3.68359375 C-82.40234375 6.80859375 -82.40234375 6.80859375 -83.58984375 8.74609375 C-86.17066587 10.25898947 -87.46354252 10.45369646 -90.40234375 9.80859375 C-94.1958442 6.0150933 -94.64547351 3.25802735 -94.65234375 -2.06640625 C-94.58853459 -3.77558021 -94.51168038 -5.4845399 -94.40234375 -7.19140625 C-106.65733478 -10.2280412 -117.17538356 -10.64385755 -128.40234375 -4.19140625 C-140.32634702 4.02409005 -147.18438108 17.22941149 -153.90234375 29.68359375 C-154.32386719 30.45558105 -154.74539062 31.22756836 -155.1796875 32.02294922 C-161.69952621 44.48813266 -163.10260033 61.40444671 -159.45703125 75.01953125 C-157.11263219 81.46294251 -154.58851247 86.38502238 -148.546875 89.8828125 C-146.18174388 90.90382539 -144.21192993 91.20774791 -141.65234375 91.43359375 C-140.853125 91.50835937 -140.05390625 91.583125 -139.23046875 91.66015625 C-138.32554687 91.73363281 -138.32554687 91.73363281 -137.40234375 91.80859375 C-137.25796875 90.83921875 -137.11359375 89.86984375 -136.96484375 88.87109375 C-136.40234375 85.80859375 -136.40234375 85.80859375 -135.40234375 84.80859375 C-131.73702704 84.40133634 -130.00462501 84.37618669 -126.96484375 86.55859375 C-125.40234375 88.80859375 -125.40234375 88.80859375 -125.40234375 90.93359375 C-126.70070117 93.36801391 -127.82749961 93.89982523 -130.40234375 94.80859375 C-131.39234375 94.80859375 -132.38234375 94.80859375 -133.40234375 94.80859375 C-131.4308556 99.37414526 -129.53811702 102.01694679 -125.40234375 104.80859375 C-121.82171085 106.00213805 -118.50048698 106.01967915 -114.76953125 106.08984375 C-114.01825958 106.10825317 -113.26698792 106.1266626 -112.49295044 106.14562988 C-110.08782718 106.20431802 -107.68263066 106.2570794 -105.27734375 106.30859375 C-69.99420497 107.07437384 -69.99420497 107.07437384 -59.76953125 117.171875 C-53.69174007 124.4478593 -53.76253763 131.5424361 -54.40234375 140.80859375 C-54.64897225 142.16737719 -54.91338888 143.52341314 -55.21484375 144.87109375 C-55.27671875 145.84046875 -55.33859375 146.80984375 -55.40234375 147.80859375 C-53.7789457 149.5174338 -52.10915322 151.18306092 -50.40234375 152.80859375 C-49.03475898 157.15268654 -49.00032594 159.0092989 -51.05859375 163.1015625 C-53.36602119 166.93387639 -56.07081118 170.34433616 -58.96484375 173.74609375 C-59.44630859 174.33455078 -59.92777344 174.92300781 -60.42382812 175.52929688 C-61.68036391 177.01743623 -63.03560167 178.42098538 -64.40234375 179.80859375 C-65.39234375 179.80859375 -66.38234375 179.80859375 -67.40234375 179.80859375 C-65.80989259 176.15026 -63.53020004 173.40823971 -60.96484375 170.37109375 C-55.70284559 164.4685225 -55.70284559 164.4685225 -53.02734375 157.24609375 C-53.47179118 154.35718544 -54.48093967 152.97017334 -56.40234375 150.80859375 C-57.02109375 151.11796875 -57.63984375 151.42734375 -58.27734375 151.74609375 C-62.28611913 153.75048144 -64.82443579 154.12985045 -69.40234375 153.80859375 C-71.33984375 152.74609375 -71.33984375 152.74609375 -72.40234375 150.80859375 C-72.79226063 146.44152467 -72.86558444 144.50345478 -70.40234375 140.80859375 C-65.56212214 141.28312528 -62.47031427 142.18794953 -58.40234375 144.80859375 C-58.29357393 141.95338594 -58.21467909 139.10238814 -58.15234375 136.24609375 C-58.11882812 135.44623047 -58.0853125 134.64636719 -58.05078125 133.82226562 C-57.94328435 127.23808037 -59.32963478 123.00839774 -64.0078125 118.13671875 C-73.01599155 111.99781154 -82.71374793 110.72177055 -93.4609375 110.5625 C-94.99675068 110.52957015 -96.53255783 110.49635836 -98.06835938 110.46289062 C-100.45544467 110.41555605 -102.84250406 110.37105 -105.22973633 110.33178711 C-107.55704216 110.29174795 -109.88389092 110.24030386 -112.2109375 110.1875 C-112.91327011 110.17908585 -113.61560272 110.17067169 -114.33921814 110.16200256 C-121.44357481 109.98749959 -128.2361977 109.12234397 -133.40234375 103.80859375 C-135.3395697 100.53534991 -136.40234375 98.62346065 -136.40234375 94.80859375 C-137.25505859 94.86080078 -137.25505859 94.86080078 -138.125 94.9140625 C-144.93557365 95.15283052 -149.71815942 94.05581784 -155.08984375 89.55859375 C-162.87297296 80.30298063 -164.91944001 70.16573726 -164.77734375 58.30859375 C-164.78894531 57.34050781 -164.80054688 56.37242187 -164.8125 55.375 C-164.76886678 44.53941658 -161.39024903 36.01474688 -156.33984375 26.55859375 C-155.85523682 25.6469043 -155.37062988 24.73521484 -154.87133789 23.79589844 C-146.65956574 8.64187139 -136.87813177 -5.9067835 -120.21484375 -12.44140625 C-112.08373376 -14.04096887 -105.02121987 -13.72001554 -97.28515625 -10.80859375 C-93.06542323 -9.42536176 -90.06616801 -11.32139426 -86.33984375 -13.19140625 C-85.68886719 -13.54203125 -85.03789062 -13.89265625 -84.3671875 -14.25390625 C-60.83315779 -25.48286675 -20.69985701 -12.1049877 0 0 Z " fill="#71C24E" transform="translate(263.40234375,82.19140625)"/>
<path d="M0 0 C34.29423443 -1.03607959 64.23258675 6.386038 90 30 C90.53786133 30.48194824 91.07572266 30.96389648 91.62988281 31.46044922 C98.98094698 38.08466144 104.35112488 43.99214868 105.29296875 54.1640625 C105.41671568 59.19643765 105.07910824 63.76229131 103.9609375 68.6640625 C102.74072767 74.46305793 103.02142733 79.98550663 103.25 85.875 C103.43717823 96.44572917 102.72323923 103.80955757 95.27734375 111.86328125 C86.4568488 119.41032895 73.61394685 121.90508101 62.5 123.8125 C61.29762695 124.02479248 60.09525391 124.23708496 58.85644531 124.45581055 C48.17596614 126.21442377 37.79062582 126.52551749 27 126 C27 125.01 27 124.02 27 123 C28.85625 122.96132812 28.85625 122.96132812 30.75 122.921875 C64.40679132 122.33411443 64.40679132 122.33411443 93.484375 107.890625 C99.4165222 100.49073004 100.17063612 92.82488822 100.0625 83.625 C100.05798828 82.88894531 100.05347656 82.15289062 100.04882812 81.39453125 C100.03715142 79.59631842 100.01922011 77.79814803 100 76 C98.89591797 76.49113281 98.89591797 76.49113281 97.76953125 76.9921875 C95.13671858 77.95024909 93.44746378 78.21855809 90.6875 78.125 C89.470625 78.08375 88.25375 78.0425 87 78 C86.25 76.375 86.25 76.375 86 74 C88.02291546 70.38765096 89.53871879 68.3075208 93 66 C96.75698557 65.62430144 97.75366476 65.8357765 101 68 C101.93028296 53.03753358 101.93028296 53.03753358 95.515625 40.109375 C82.97682341 26.85790331 69.43648147 17.04986022 52.0625 11.3125 C50.95970703 10.93544922 49.85691406 10.55839844 48.72070312 10.16992188 C45.49072316 9.07801714 42.25027438 8.02975721 39 7 C38.09838135 6.70488525 37.1967627 6.40977051 36.26782227 6.10571289 C28.53381536 3.75462639 20.85475578 3.25014647 12.8125 2.8125 C11.46543036 2.73087417 10.11842393 2.64819812 8.77148438 2.56445312 C5.51479037 2.36601657 2.25785877 2.17809671 -1 2 C-0.67 1.34 -0.34 0.68 0 0 Z " fill="#72C54F" transform="translate(190,66)"/>
<path d="M0 0 C2.3925 -0.0825 4.785 -0.165 7.25 -0.25 C7.99668945 -0.28641602 8.74337891 -0.32283203 9.51269531 -0.36035156 C12.94001891 -0.41750435 14.69834912 -0.22743519 17.4609375 1.85546875 C19.35948505 4.50090683 19.4910172 5.80838819 19 9 C18.01 10.485 18.01 10.485 17 12 C17.495 12.391875 17.99 12.78375 18.5 13.1875 C20 15 20 15 20.5 17.4375 C20 20 20 20 17.95703125 22.14453125 C14.27988129 24.45185784 11.36895174 24.45644633 7.1875 24.25 C4.815625 24.1675 2.44375 24.085 0 24 C0 16.08 0 8.16 0 0 Z " fill="#EEB153" transform="translate(214,282)"/>
<path d="M0 0 C2.3925 -0.0825 4.785 -0.165 7.25 -0.25 C7.99668945 -0.28641602 8.74337891 -0.32283203 9.51269531 -0.36035156 C12.94001891 -0.41750435 14.69834912 -0.22743519 17.4609375 1.85546875 C19.35948505 4.50090683 19.4910172 5.80838819 19 9 C18.01 10.485 18.01 10.485 17 12 C17.495 12.391875 17.99 12.78375 18.5 13.1875 C20 15 20 15 20.5 17.4375 C20 20 20 20 17.95703125 22.14453125 C14.27988129 24.45185784 11.36895174 24.45644633 7.1875 24.25 C4.815625 24.1675 2.44375 24.085 0 24 C0 16.08 0 8.16 0 0 Z " fill="#EEB153" transform="translate(88,282)"/>
<path d="M0 0 C34.29423443 -1.03607959 64.23258675 6.386038 90 30 C90.53786133 30.48194824 91.07572266 30.96389648 91.62988281 31.46044922 C99.07674045 38.17098313 104.56624236 44.15119518 105.22265625 54.515625 C105.24670905 57.69059395 105.17883557 60.83063629 105 64 C103.515 63.505 103.515 63.505 102 63 C101.90203125 61.91460937 101.8040625 60.82921875 101.703125 59.7109375 C101.55295324 58.26553435 101.40186268 56.82022647 101.25 55.375 C101.188125 54.66214844 101.12625 53.94929688 101.0625 53.21484375 C99.65246215 40.40699995 87.3446155 31.92496602 78.03125 24.203125 C69.84486625 18.25322753 61.65923608 14.48160271 52.0625 11.3125 C50.95970703 10.93544922 49.85691406 10.55839844 48.72070312 10.16992188 C45.49072316 9.07801714 42.25027438 8.02975721 39 7 C38.09838135 6.70488525 37.1967627 6.40977051 36.26782227 6.10571289 C28.53381536 3.75462639 20.85475578 3.25014647 12.8125 2.8125 C11.46543036 2.73087417 10.11842393 2.64819812 8.77148438 2.56445312 C5.51479037 2.36601657 2.25785877 2.17809671 -1 2 C-0.67 1.34 -0.34 0.68 0 0 Z " fill="#72C44E" transform="translate(190,66)"/>
<path d="M0 0 C1.65 0 3.3 0 5 0 C5.67126129 2.4363189 6.33716354 4.87388883 7 7.3125 C7.19078125 8.00279297 7.3815625 8.69308594 7.578125 9.40429688 C8.37716184 12.35787949 9 14.92559219 9 18 C9.66 18 10.32 18 11 18 C11.12375 16.88625 11.2475 15.7725 11.375 14.625 C11.98457542 9.69539009 12.97473685 4.85755745 14 0 C16.31 0 18.62 0 21 0 C21.41572266 1.60681641 21.41572266 1.60681641 21.83984375 3.24609375 C22.20554924 4.64327627 22.57144446 6.04040915 22.9375 7.4375 C23.11990234 8.14455078 23.30230469 8.85160156 23.49023438 9.58007812 C24.18149374 13.07574861 24.18149374 13.07574861 26 16 C27.32 11.05 28.64 6.1 30 1 C31.65 0.67 33.3 0.34 35 0 C33.29830289 8.08306125 31.16286319 16.03100406 29 24 C26.69 24 24.38 24 22 24 C20.68 18.72 19.36 13.44 18 8 C16.22714569 11.54570863 15.28770187 14.43324673 14.375 18.25 C14.11460937 19.32765625 13.85421875 20.4053125 13.5859375 21.515625 C13.39257812 22.33546875 13.19921875 23.1553125 13 24 C11.02 24 9.04 24 7 24 C5.82865778 20.37649379 4.66372198 16.75096001 3.5 13.125 C3.16613281 12.09246094 2.83226562 11.05992187 2.48828125 9.99609375 C2.17246094 9.00996094 1.85664063 8.02382813 1.53125 7.0078125 C1.09135742 5.64100342 1.09135742 5.64100342 0.64257812 4.24658203 C0 2 0 2 0 0 Z " fill="#ECAF52" transform="translate(132,282)"/>
<path d="M0 0 C2.56283148 1.89426674 3.00256962 3.01191368 3.6875 6.1875 C3.790625 7.445625 3.89375 8.70375 4 10 C4.12375 11.258125 4.2475 12.51625 4.375 13.8125 C4.26905205 19.87507691 1.34214256 25.33950796 -2.609375 29.828125 C-6.48679044 33.34981425 -10.99926093 36.35749784 -16 38 C-19 37.75 -19 37.75 -21 37 C-21 34 -21 34 -18.5625 31.5 C-17.716875 30.675 -16.87125 29.85 -16 29 C-15.67 28.01 -15.34 27.02 -15 26 C-14.236875 25.5875 -13.47375 25.175 -12.6875 24.75 C-9.22562525 22.49575598 -7.36728086 19.84213559 -6 16 C-5.85937475 13.94011096 -5.85937475 13.94011096 -6 11.875 C-6 7.31716069 -5.09942737 6.190587 -2 3 C-1.34 2.01 -0.68 1.02 0 0 Z " fill="#040602" transform="translate(201,119)"/>
<path d="M0 0 C4.78656952 3.80971859 7.87920305 7.34558371 8.75 13.5 C9.32447328 16.42305519 9.80003443 17.23994018 12.2265625 19.06640625 C13.99897854 20.06763832 15.78179293 21.05067217 17.57421875 22.015625 C21.58695392 24.30861652 24.31781058 26.75014253 25.6015625 31.3828125 C25.83778932 33.68383675 25.76913842 35.22980356 25.0625 37.4375 C22.2592305 40.88024212 19.26318021 43.03727326 15.0625 44.4375 C15.25 42.6875 15.25 42.6875 16.0625 40.4375 C17.3309375 39.509375 17.3309375 39.509375 18.625 38.5625 C21.33687697 36.63927017 21.33687697 36.63927017 21.625 33.5 C20.93031525 29.71782746 19.76942539 28.14442539 17.0625 25.4375 C14.44392305 23.64787181 14.44392305 23.64787181 12.0625 22.4375 C12.5575 23.9225 12.5575 23.9225 13.0625 25.4375 C13.13052967 27.16545352 13.14745645 28.89585365 13.125 30.625 C13.11597656 31.52605469 13.10695312 32.42710938 13.09765625 33.35546875 C13.08605469 34.04253906 13.07445312 34.72960937 13.0625 35.4375 C12.0725 35.9325 12.0725 35.9325 11.0625 36.4375 C10.4025 32.8075 9.7425 29.1775 9.0625 25.4375 C7.7425 25.1075 6.4225 24.7775 5.0625 24.4375 C5.0625 23.1175 5.0625 21.7975 5.0625 20.4375 C1.1025 20.4375 -2.8575 20.4375 -6.9375 20.4375 C-5.6175 19.4475 -4.2975 18.4575 -2.9375 17.4375 C-2.6075 16.4475 -2.2775 15.4575 -1.9375 14.4375 C0.7025 14.7675 3.3425 15.0975 6.0625 15.4375 C5.46727663 13.99627387 4.86092381 12.55964132 4.25 11.125 C3.91355469 10.32449219 3.57710937 9.52398437 3.23046875 8.69921875 C1.70924658 5.7534407 0.39707771 3.93581871 -2.7578125 2.7578125 C-9.34001052 1.79053609 -16.4501811 1.99587358 -22.9375 3.4375 C-21.9375 0.4375 -21.9375 0.4375 -19.625 -0.75 C-13.27862432 -2.14835396 -5.98720235 -3.05925033 0 0 Z " fill="#72C44E" transform="translate(228.9375,93.5625)"/>
<path d="M0 0 C0.33 0 0.66 0 1 0 C0.94199219 0.59167969 0.88398438 1.18335938 0.82421875 1.79296875 C0.68236226 4.27748387 0.64941638 6.53339379 1 9 C3.39585286 11.64587234 3.39585286 11.64587234 6 14 C7.36758477 18.34409279 7.40201781 20.20070515 5.34375 24.29296875 C3.03632256 28.12528264 0.33153257 31.53574241 -2.5625 34.9375 C-3.04396484 35.52595703 -3.52542969 36.11441406 -4.02148438 36.72070312 C-5.27802016 38.20884248 -6.63325792 39.61239163 -8 41 C-8.99 41 -9.98 41 -11 41 C-9.40754884 37.34166625 -7.12785629 34.59964596 -4.5625 31.5625 C0.69949816 25.65992875 0.69949816 25.65992875 3.375 18.4375 C2.93055257 15.54859169 1.92140408 14.16157959 0 12 C-0.61875 12.309375 -1.2375 12.61875 -1.875 12.9375 C-5.88377538 14.94188769 -8.42209204 15.3212567 -13 15 C-14.9375 13.9375 -14.9375 13.9375 -16 12 C-16.38991688 7.63293092 -16.46324069 5.69486103 -14 2 C-9.22423661 2.4682121 -5.95523655 3.24331998 -2 6 C-1.855625 5.195625 -1.71125 4.39125 -1.5625 3.5625 C-1 1 -1 1 0 0 Z " fill="#75CA51" transform="translate(207,221)"/>
<path d="M0 0 C1.02867187 -0.01417969 2.05734375 -0.02835937 3.1171875 -0.04296875 C7.96775512 0.32869812 10.43421738 1.49671738 13.875 4.9375 C16.16058397 8.23889907 16.84265006 10.2346009 17.125 14.1875 C12.86864091 13.51882727 8.69823064 12.65261049 4.5 11.6875 C-1.95261076 10.2802817 -8.28623286 9.53745283 -14.875 9.1875 C-14.0790503 4.96896659 -12.41066621 3.62879333 -8.875 1.1875 C-5.69954097 0.12901366 -3.33491204 0.02079122 0 0 Z " fill="#030502" transform="translate(217.875,94.8125)"/>
<path d="M0 0 C0.99 1.485 0.99 1.485 2 3 C1.17757812 3.21914062 0.35515625 3.43828125 -0.4921875 3.6640625 C-7.33359671 5.60746512 -13.06138696 7.85847232 -18.9765625 11.828125 C-21 13 -21 13 -24 13 C-24.45572917 11.01432292 -24.91145833 9.02864583 -25.3671875 7.04296875 C-25.98007723 4.72257026 -25.98007723 4.72257026 -28 2 C-20.09411339 -4.8078468 -9.23896675 -4.8385106 0 0 Z " fill="#030602" transform="translate(196,102)"/>
<path d="M0 0 C2.8125 1.5625 2.8125 1.5625 5 4 C5.8125 7.75 5.8125 7.75 6 11 C1.71 11 -2.58 11 -7 11 C-6.67 11.99 -6.34 12.98 -6 14 C-4.7625 14 -3.525 14 -2.25 14 C0.5 14 3.25 14 6 14 C1.87378641 18.85436893 1.87378641 18.85436893 -2 19.5 C-6.09913851 18.81681025 -8.8393553 17.60279506 -11.3125 14.1875 C-12.24084633 11.23367076 -12.37765935 9.084218 -12 6 C-8.54235344 0.81353016 -6.24330406 -0.61208863 0 0 Z " fill="#E1A74E" transform="translate(205,288)"/>
<path d="M0 0 C3.34265205 1.20706879 3.94704566 1.92056849 6 5 C6 6.98 6 8.96 6 11 C1.71 11 -2.58 11 -7 11 C-6.01 12.485 -6.01 12.485 -5 14 C-1.28359861 14.27028374 1.457201 14.180933 5 13 C5 14.32 5 15.64 5 17 C1.58442978 19.10188936 -1.02173 19.4871351 -5 19 C-7.69990662 17.20006226 -9.5418865 15.916227 -11 13 C-11.69093988 5.97544454 -11.69093988 5.97544454 -8.875 2 C-5.50172663 -0.34662495 -4.02250703 -0.59909679 0 0 Z " fill="#E4A94F" transform="translate(247,288)"/>
<path d="M0 0 C0 0.99 0 1.98 0 3 C-1.91666667 3.47916667 -3.83333333 3.95833333 -5.75 4.4375 C-6.81734375 4.70433594 -7.8846875 4.97117187 -8.984375 5.24609375 C-11.6875 5.921875 -11.6875 5.921875 -14.390625 6.59765625 C-14.92171875 6.73042969 -15.4528125 6.86320312 -16 7 C-15.4946875 7.56847656 -14.989375 8.13695313 -14.46875 8.72265625 C-9.15519835 15.03777021 -9.15519835 15.03777021 -8.375 19.875 C-9 23 -9 23 -10.1875 24.9375 C-12.76832212 26.45039572 -14.06119877 26.64510271 -17 26 C-20.79350045 22.20649955 -21.24312976 19.4494336 -21.25 14.125 C-21.18619084 12.41582604 -21.10933663 10.70686635 -21 9 C-21.99 8.67 -22.98 8.34 -24 8 C-23.01 7.5875 -22.02 7.175 -21 6.75 C-17.54462022 5.27813437 -14.21838662 3.61373472 -10.89453125 1.8671875 C-7.22420472 0.18716175 -4.01394932 -0.11149859 0 0 Z " fill="#6FBF4C" transform="translate(190,66)"/>
<path d="M0 0 C2.4375 1.3125 2.4375 1.3125 4 4 C4.32396453 7.69107127 4.22932784 11.30527369 4 15 C5.32 15.33 6.64 15.66 8 16 C7.34 16.99 6.68 17.98 6 19 C5.236875 18.835 4.47375 18.67 3.6875 18.5 C1.06257106 18.01164113 -1.31281388 17.97550624 -3.97265625 18.0703125 C-5.98121994 18.12287305 -7.99176042 18.06375364 -10 18 C-12 16 -12 16 -12.375 13.5625 C-12 11 -12 11 -10.5 9.1875 C-6.87730459 7.46671968 -3.98961898 7.80051905 0 8 C-0.33 6.68 -0.66 5.36 -1 4 C-5.47883696 4.44703986 -5.47883696 4.44703986 -9 7 C-9.99 6.67 -10.98 6.34 -12 6 C-9.46977419 0.16101737 -6.15523662 -0.64791964 0 0 Z " fill="#E2A84F" transform="translate(267,288)"/>
<path d="M0 0 C0.66 0.66 1.32 1.32 2 2 C1.690625 2.66 1.38125 3.32 1.0625 4 C-0.24960255 7.70476015 -0.60264135 11.09263991 -1 15 C-5.29 15.66 -9.58 16.32 -14 17 C-17.86705202 10.55491329 -17.86705202 10.55491329 -17 7 C-11.92140128 1.40676995 -7.62931829 -0.41614463 0 0 Z " fill="#040702" transform="translate(162,104)"/>
<path d="M0 0 C0.66 0 1.32 0 2 0 C3.38938077 1.96147874 4.7260411 3.96166576 6 6 C4.02 6 2.04 6 0 6 C0 6.99 0 7.98 0 9 C1.37285156 8.96519531 1.37285156 8.96519531 2.7734375 8.9296875 C3.96195313 8.91164062 5.15046875 8.89359375 6.375 8.875 C7.55835938 8.85179687 8.74171875 8.82859375 9.9609375 8.8046875 C13 9 13 9 15 11 C6.44081961 18.16582545 -3.93633075 20.89907922 -15 20 C-12.76724605 17.6813709 -10.58334901 15.68751176 -8 13.75 C-3.62370888 10.1824918 -1.74730805 5.24192416 0 0 Z " fill="#040803" transform="translate(207,137)"/>
<path d="M0 0 C5.74333023 -0.12488006 11.48584661 -0.2149354 17.23022461 -0.2746582 C19.17860709 -0.29959004 21.12689813 -0.33354849 23.07495117 -0.37719727 C36.42460655 -0.66852479 47.8933408 -0.51949196 59.0625 7.8125 C63.54611866 12.24035226 65.82016481 16.26414663 66.23828125 22.625 C66.24877099 26.09360865 66.17513588 29.53620145 66 33 C64.515 32.505 64.515 32.505 63 32 C62.97421875 31.14277344 62.9484375 30.28554687 62.921875 29.40234375 C62.42362138 18.90524639 62.42362138 18.90524639 56.49609375 10.578125 C47.91602208 3.80962298 37.21463774 2.92540733 26.66015625 2.68359375 C25.89319931 2.66281265 25.12624237 2.64203156 24.33604431 2.62062073 C21.91161128 2.55579168 19.48707987 2.49655379 17.0625 2.4375 C15.40819338 2.39425121 13.75389633 2.35063501 12.09960938 2.30664062 C8.06650434 2.20017976 4.03330141 2.09872938 0 2 C0 1.34 0 0.68 0 0 Z " fill="#75CA51" transform="translate(143,190)"/>
<path d="M0 0 C1.32 0.66 2.64 1.32 4 2 C3.52994768 4.53828252 2.89404485 6.16776233 1.5 8.375 C-0.16597341 11.29045347 -0.614848 13.68769281 -1 17 C-0.34 17 0.32 17 1 17 C1.4021875 15.3603125 1.4021875 15.3603125 1.8125 13.6875 C2.930763 10.2149991 3.43744207 9.28172966 6 7 C6.07476562 7.82242188 6.14953125 8.64484375 6.2265625 9.4921875 C7.1855556 17.63422699 9.21950787 23.34038361 14 30 C9.47984761 29.34019562 5.91898213 28.67392023 2.1875 25.9375 C-2.15662158 20.10396531 -4.71609393 14.39123482 -4.40625 7.01953125 C-3.78869522 3.94957141 -2.20754251 2.13855681 0 0 Z " fill="#080E05" transform="translate(146,125)"/>
<path d="M0 0 C2.475 0.495 2.475 0.495 5 1 C5 1.66 5 2.32 5 3 C7.10464793 2.69075786 9.2087053 2.3774944 11.3125 2.0625 C13.07013672 1.80146484 13.07013672 1.80146484 14.86328125 1.53515625 C18.01641403 1.07906969 18.01641403 1.07906969 21 0 C21.32771084 8.35662651 21.32771084 8.35662651 19 12 C15.70696254 13.86398347 13.33251219 15.10651743 9.5078125 14.80078125 C5.04198544 13.37477728 2.48239629 9.84981798 0 6 C-0.4375 2.5 -0.4375 2.5 0 0 Z " fill="#040703" transform="translate(209,128)"/>
<path d="M0 0 C0.33 0 0.66 0 1 0 C0.9278125 0.63421875 0.855625 1.2684375 0.78125 1.921875 C-0.21560581 11.94581395 -0.08949281 21.93703082 0 32 C-0.66 32 -1.32 32 -2 32 C-2.33 26.06 -2.66 20.12 -3 14 C-4.65 14.66 -6.3 15.32 -8 16 C-10.23828125 16.1953125 -10.23828125 16.1953125 -12.3125 16.125 C-13.529375 16.08375 -14.74625 16.0425 -16 16 C-16.75 14.375 -16.75 14.375 -17 12 C-14.97708454 8.38765096 -13.46128121 6.3075208 -10 4 C-6.24301443 3.62430144 -5.24633524 3.8357765 -2 6 C-1.34 4.02 -0.68 2.04 0 0 Z " fill="#7AD254" transform="translate(293,128)"/>
<path d="M0 0 C1.34391123 0.64507739 2.67353844 1.3197633 4 2 C5.11375 2.474375 6.2275 2.94875 7.375 3.4375 C12.46218554 6.32719719 14.88530932 11.73263861 17 17 C17 18.32 17 19.64 17 21 C13.00622643 21.47544923 11.31120665 21.19917226 7.875 19 C2.24205686 13.75145718 0.53325341 7.46554774 0 0 Z " fill="#060A04" transform="translate(154,134)"/>
<path d="M0 0 C2.375 1.5 2.375 1.5 4 3 C3.67 3.99 3.34 4.98 3 6 C2.34 6 1.68 6 1 6 C1 5.34 1 4.68 1 4 C-0.98 4 -2.96 4 -5 4 C-5 4.66 -5 5.32 -5 6 C-4.28972656 6.23074219 -3.57945312 6.46148437 -2.84765625 6.69921875 C-1.46900391 7.18841797 -1.46900391 7.18841797 -0.0625 7.6875 C0.85402344 8.00074219 1.77054687 8.31398438 2.71484375 8.63671875 C5 10 5 10 5.81640625 12.64453125 C5.87699219 13.42183594 5.93757813 14.19914062 6 15 C3.33545168 17.50781019 1.65220595 18.89129901 -2 19.5 C-5.71270212 18.88121631 -7.39455081 17.68208004 -10 15 C-10 14.01 -10 13.02 -10 12 C-8.68 12.33 -7.36 12.66 -6 13 C-6 13.66 -6 14.32 -6 15 C-3.36 15 -0.72 15 2 15 C2 14.01 2 13.02 2 12 C1.37351562 11.87882812 0.74703125 11.75765625 0.1015625 11.6328125 C-1.12433594 11.38144531 -1.12433594 11.38144531 -2.375 11.125 C-3.18710937 10.96257812 -3.99921875 10.80015625 -4.8359375 10.6328125 C-7 10 -7 10 -9 8 C-9.36023622 5.19015752 -9.38332602 3.61758081 -7.875 1.1875 C-5.11646047 -0.55957504 -3.20161236 -0.39203417 0 0 Z " fill="#DEA44D" transform="translate(286,288)"/>
<path d="M0 0 C2.375 1.5 2.375 1.5 4 3 C3.67 3.99 3.34 4.98 3 6 C2.34 6 1.68 6 1 6 C1 5.34 1 4.68 1 4 C-0.98 4 -2.96 4 -5 4 C-5 4.66 -5 5.32 -5 6 C-4.28972656 6.23074219 -3.57945312 6.46148437 -2.84765625 6.69921875 C-1.46900391 7.18841797 -1.46900391 7.18841797 -0.0625 7.6875 C0.85402344 8.00074219 1.77054688 8.31398438 2.71484375 8.63671875 C5 10 5 10 5.81640625 12.64453125 C5.87699219 13.42183594 5.93757812 14.19914062 6 15 C3.33545168 17.50781019 1.65220595 18.89129901 -2 19.5 C-5.71270212 18.88121631 -7.39455081 17.68208004 -10 15 C-10 14.01 -10 13.02 -10 12 C-8.68 12.33 -7.36 12.66 -6 13 C-6 13.66 -6 14.32 -6 15 C-3.36 15 -0.72 15 2 15 C2 14.01 2 13.02 2 12 C1.37351563 11.87882812 0.74703125 11.75765625 0.1015625 11.6328125 C-1.12433594 11.38144531 -1.12433594 11.38144531 -2.375 11.125 C-3.18710938 10.96257812 -3.99921875 10.80015625 -4.8359375 10.6328125 C-7 10 -7 10 -9 8 C-9.36023622 5.19015752 -9.38332602 3.61758081 -7.875 1.1875 C-5.11646047 -0.55957504 -3.20161236 -0.39203417 0 0 Z " fill="#DEA44D" transform="translate(186,288)"/>
<path d="M0 0 C0.99 0 1.98 0 3 0 C3 1.98 3 3.96 3 6 C5.31 6 7.62 6 10 6 C10 6.99 10 7.98 10 9 C7.69 9 5.38 9 3 9 C3 12.63 3 16.26 3 20 C5.31 19.34 7.62 18.68 10 18 C10 19.32 10 20.64 10 22 C6.76746204 24.15502531 5.74849077 24.46856135 2 24 C0.35546875 22.8671875 0.35546875 22.8671875 -1 21 C-1.29296875 18.08203125 -1.29296875 18.08203125 -1.1875 14.8125 C-1.16042969 13.72582031 -1.13335937 12.63914062 -1.10546875 11.51953125 C-1.07066406 10.68808594 -1.03585937 9.85664063 -1 9 C-2.32 9 -3.64 9 -5 9 C-5 8.01 -5 7.02 -5 6 C-3.68 6 -2.36 6 -1 6 C-1.020625 5.195625 -1.04125 4.39125 -1.0625 3.5625 C-1 1 -1 1 0 0 Z " fill="#E4A94F" transform="translate(297,283)"/>
<path d="M0 0 C0.99 0 1.98 0 3 0 C3 1.65 3 3.3 3 5 C5.64 5 8.28 5 11 5 C11 5.99 11 6.98 11 8 C8.36 8 5.72 8 3 8 C3.33 11.3 3.66 14.6 4 18 C5.65 18.33 7.3 18.66 9 19 C9 18.34 9 17.68 9 17 C9.66 17 10.32 17 11 17 C11 18.32 11 19.64 11 21 C7.76746204 23.15502531 6.74849077 23.46856135 3 23 C1.35546875 21.8671875 1.35546875 21.8671875 0 20 C-0.29296875 17.08203125 -0.29296875 17.08203125 -0.1875 13.8125 C-0.16042969 12.72582031 -0.13335937 11.63914062 -0.10546875 10.51953125 C-0.07066406 9.68808594 -0.03585938 8.85664063 0 8 C-1.32 8 -2.64 8 -4 8 C-4 7.01 -4 6.02 -4 5 C-2.68 5 -1.36 5 0 5 C0 3.35 0 1.7 0 0 Z " fill="#EFB153" transform="translate(120,284)"/>
<path d="M0 0 C4.665961 2.42271052 8.23514961 4.35505134 11 9 C11.625 12 11.625 12 11 15 C9.16448436 17.19801559 7.44010526 18.37326316 5 20 C4.01 20 3.02 20 2 20 C2.02320313 19.14277344 2.04640625 18.28554687 2.0703125 17.40234375 C2.16826645 11.19626131 2.17409407 5.8428778 0 0 Z " fill="#030602" transform="translate(240,115)"/>
<path d="M0 0 C0.66 0.33 1.32 0.66 2 1 C2 3 2 3 0 5.125 C-0.66 5.74375 -1.32 6.3625 -2 7 C-1.484375 7.5775 -0.96875 8.155 -0.4375 8.75 C1 11 1 11 0.8125 13.0625 C0 15 0 15 -2 18 C-2.33 15.69 -2.66 13.38 -3 11 C-5.475 10.505 -5.475 10.505 -8 10 C-8.33 9.01 -8.66 8.02 -9 7 C-14.30289895 6.68182606 -17.42501701 7.3146839 -22 10 C-23.423125 10.8353125 -23.423125 10.8353125 -24.875 11.6875 C-25.57625 12.120625 -26.2775 12.55375 -27 13 C-27 10 -27 10 -25.25 7.9375 C-19.81443081 3.25687097 -15.37346585 3.947943 -8.41015625 4.3203125 C-4.38573058 3.9423023 -2.86084105 2.76855586 0 0 Z " fill="#74C850" transform="translate(171,98)"/>
<path d="M0 0 C3.19359308 3.19359308 3.15818838 6.11696744 3.1875 10.4375 C3.20167969 11.38496094 3.21585938 12.33242187 3.23046875 13.30859375 C2.98468037 16.17890212 2.79764915 17.7387737 1 20 C-2.125 20.75 -2.125 20.75 -5 21 C-4.75612444 13.00088158 -4.19411683 6.89999866 0 0 Z " fill="#060A04" transform="translate(237,117)"/>
<path d="M0 0 C3.3125 -0.3125 3.3125 -0.3125 7 0 C9.40428529 2.62968704 10 4.13201834 10 7.6875 C9 10 9 10 6.875 11.3125 C3.50485983 12.11840308 0.45313937 12.13541723 -3 12 C-2.01 8.04 -1.02 4.08 0 0 Z " fill="#070C05" transform="translate(220,116)"/>
<path d="M0 0 C3.16115776 1.36983503 3.9927092 1.9890638 6 5 C5 8 5 8 3 9 C2.67 9.66 2.34 10.32 2 11 C1.34 11 0.68 11 0 11 C-0.33 10.34 -0.66 9.68 -1 9 C-1.99 10.485 -1.99 10.485 -3 12 C-5.96175123 11.38722388 -7.38058783 10.74627478 -10 9 C-9.67 7.68 -9.34 6.36 -9 5 C-7.68 5 -6.36 5 -5 5 C-4.67 4.34 -4.34 3.68 -4 3 C-4.66 3 -5.32 3 -6 3 C-6 2.34 -6 1.68 -6 1 C-3.83125748 1.50603992 -2.00032373 1.99983813 0 3 C0 2.01 0 1.02 0 0 Z " fill="#55933B" transform="translate(186,118)"/>
<path d="M0 0 C1.8125 0.1875 1.8125 0.1875 4 1 C5.03789581 2.64333504 6.03567924 4.31243867 7 6 C11.63252394 10.05345844 16.02066447 10.18431568 21.94921875 10.31640625 C22.72183548 10.33718735 23.49445221 10.35796844 24.29048157 10.37937927 C26.7560648 10.44471038 29.22175361 10.50368315 31.6875 10.5625 C33.36003691 10.60570087 35.03256319 10.64931566 36.70507812 10.69335938 C40.8032775 10.8003749 44.90158296 10.90168857 49 11 C49 11.33 49 11.66 49 12 C43.57492801 12.26764554 38.14985866 12.50047797 32.72192383 12.7019043 C30.87777495 12.77515282 29.03397046 12.85771261 27.19067383 12.94995117 C24.53243504 13.08131971 21.87473465 13.17854919 19.21484375 13.26953125 C18.39789536 13.31721146 17.58094696 13.36489166 16.73924255 13.41401672 C11.51858556 13.55049722 8.5260283 12.61873925 4.39649963 9.39555359 C2.21287265 7.21340588 1.08055401 4.86029001 0 2 C0 1.34 0 0.68 0 0 Z " fill="#5B9D3F" transform="translate(127,178)"/>
<path d="M0 0 C4.29 0 8.58 0 13 0 C13.66 1.32 14.32 2.64 15 4 C13.54462432 4.83848804 12.08559627 5.67063934 10.625 6.5 C9.40683594 7.19609375 9.40683594 7.19609375 8.1640625 7.90625 C6 9 6 9 4 9 C0.88002198 5.69649386 0 4.67590167 0 0 Z " fill="#040702" transform="translate(203,108)"/>
<path d="M0 0 C2.71435596 0.93305986 3.78043163 1.62673377 5.25 4.125 C5.4975 4.74375 5.745 5.3625 6 6 C0.375 10 0.375 10 -3 10 C-3 10.66 -3 11.32 -3 12 C-4.32 11.67 -5.64 11.34 -7 11 C-6.49697411 6.59852343 -4.97554199 4.24604581 -2 1 C-1.34 0.67 -0.68 0.34 0 0 Z " fill="#70C14D" transform="translate(283,132)"/>
<path d="M0 0 C2.31 0 4.62 0 7 0 C8.04028969 3.38094149 8.15672777 6.47362528 8 10 C7 11 7 11 3.4375 11.0625 C2.303125 11.041875 1.16875 11.02125 0 11 C0 7.37 0 3.74 0 0 Z " fill="#11384F" transform="translate(111,322)"/>
<path d="M0 0 C1.45792884 -0.05399736 2.91642712 -0.09279177 4.375 -0.125 C5.18710938 -0.14820313 5.99921875 -0.17140625 6.8359375 -0.1953125 C9 0 9 0 11 2 C10.44444444 6.55555556 10.44444444 6.55555556 9 8 C7.48071962 8.07179964 5.95832518 8.08392007 4.4375 8.0625 C3.61121094 8.05347656 2.78492188 8.04445313 1.93359375 8.03515625 C1.29550781 8.02355469 0.65742188 8.01195312 0 8 C0 5.36 0 2.72 0 0 Z " fill="#150F07" transform="translate(218,295)"/>
<path d="M0 0 C1.45792884 -0.05399736 2.91642712 -0.09279177 4.375 -0.125 C5.18710938 -0.14820313 5.99921875 -0.17140625 6.8359375 -0.1953125 C9 0 9 0 11 2 C10.44444444 6.55555556 10.44444444 6.55555556 9 8 C7.48071962 8.07179964 5.95832518 8.08392007 4.4375 8.0625 C3.61121094 8.05347656 2.78492187 8.04445313 1.93359375 8.03515625 C1.29550781 8.02355469 0.65742187 8.01195312 0 8 C0 5.36 0 2.72 0 0 Z " fill="#150F07" transform="translate(92,295)"/>
<path d="M0 0 C0.33 0 0.66 0 1 0 C1.02578125 0.825 1.0515625 1.65 1.078125 2.5 C1.54920451 12.09289186 3.425587 20.78000924 6 30 C5.01 30.33 4.02 30.66 3 31 C-0.95515365 20.84726184 -1.76546253 11.79176687 -1 1 C-0.67 0.67 -0.34 0.34 0 0 Z " fill="#74C950" transform="translate(100,134)"/>
<path d="M0 0 C4.29 0 8.58 0 13 0 C12.25 6.625 12.25 6.625 10 10 C9.34 10 8.68 10 8 10 C7.401875 9.05125 6.80375 8.1025 6.1875 7.125 C3.89535212 3.85050303 2.75819708 3.04394363 -1 2 C-0.67 1.34 -0.34 0.68 0 0 Z " fill="#040702" transform="translate(186,113)"/>
<path d="M0 0 C3.6413205 -0.33102914 5.41472925 -0.42019439 8.4375 1.75 C10 4 10 4 10.125 6.125 C8.4121231 8.97979484 6.11293538 9.20520799 3 10 C3 9.34 3 8.68 3 8 C2.34 8 1.68 8 1 8 C0.40267181 5.23735711 0 2.83967231 0 0 Z " fill="#41702D" transform="translate(128,167)"/>
<path d="M0 0 C4.24994263 -0.05805933 8.49978324 -0.09361654 12.75 -0.125 C13.9565625 -0.14175781 15.163125 -0.15851563 16.40625 -0.17578125 C17.56640625 -0.18222656 18.7265625 -0.18867187 19.921875 -0.1953125 C20.99018555 -0.20578613 22.05849609 -0.21625977 23.15917969 -0.22705078 C25.97979105 -0.00161519 27.60787463 0.54151006 30 2 C30 2.33 30 2.66 30 3 C19.6265501 3.16494885 9.3489074 2.65043638 -1 2 C-0.67 1.34 -0.34 0.68 0 0 Z " fill="#78D053" transform="translate(190,66)"/>
<path d="M0 0 C1.4540625 0.0309375 1.4540625 0.0309375 2.9375 0.0625 C2.6075 1.7125 2.2775 3.3625 1.9375 5.0625 C1.2775 5.0625 0.6175 5.0625 -0.0625 5.0625 C-0.0625 5.7225 -0.0625 6.3825 -0.0625 7.0625 C0.5975 7.0625 1.2575 7.0625 1.9375 7.0625 C1.6075 8.7125 1.2775 10.3625 0.9375 12.0625 C-0.7125 11.7325 -2.3625 11.4025 -4.0625 11.0625 C-5.30075459 7.34773623 -4.76837257 4.87421187 -4.0625 1.0625 C-3.0625 0.0625 -3.0625 0.0625 0 0 Z " fill="#2476A6" transform="translate(241.0625,324.9375)"/>
<path d="M0 0 C1.32 0 2.64 0 4 0 C4 5.61 4 11.22 4 17 C2.68 17 1.36 17 0 17 C0 11.39 0 5.78 0 0 Z " fill="#F1B254" transform="translate(169,289)"/>
<path d="M0 0 C1.32 0 2.64 0 4 0 C4 5.61 4 11.22 4 17 C2.68 17 1.36 17 0 17 C0 11.39 0 5.78 0 0 Z " fill="#E3A84F" transform="translate(110,289)"/>
<path d="M0 0 C0.66 0.66 1.32 1.32 2 2 C1.24074219 2.89203125 0.48148438 3.7840625 -0.30078125 4.703125 C-1.30474754 5.88536568 -2.30865046 7.06766018 -3.3125 8.25 C-3.81201172 8.83652344 -4.31152344 9.42304688 -4.82617188 10.02734375 C-5.31279297 10.60097656 -5.79941406 11.17460937 -6.30078125 11.765625 C-6.77338379 12.32185547 -7.24598633 12.87808594 -7.73291016 13.45117188 C-9.12116675 15.10466681 -9.12116675 15.10466681 -10.66796875 17.421875 C-11.10753906 17.94265625 -11.54710937 18.4634375 -12 19 C-12.99 19 -13.98 19 -15 19 C-13.40212025 15.35752143 -11.15207958 12.55600321 -8.625 9.5 C-7.85414063 8.5615625 -7.08328125 7.623125 -6.2890625 6.65625 C-4.27933934 4.32414804 -2.21072222 2.14005986 0 0 Z " fill="#72C44E" transform="translate(211,243)"/>
<path d="M0 0 C3.3 0 6.6 0 10 0 C10.33 1.65 10.66 3.3 11 5 C8.59454362 6.20272819 7.05003047 6.10071472 4.375 6.0625 C3.14910156 6.04896484 3.14910156 6.04896484 1.8984375 6.03515625 C0.95871094 6.01775391 0.95871094 6.01775391 0 6 C0 4.02 0 2.04 0 0 Z " fill="#070502" transform="translate(218,286)"/>
<path d="M0 0 C3.3 0 6.6 0 10 0 C10.33 1.65 10.66 3.3 11 5 C8.59454362 6.20272819 7.05003047 6.10071472 4.375 6.0625 C3.14910156 6.04896484 3.14910156 6.04896484 1.8984375 6.03515625 C0.95871094 6.01775391 0.95871094 6.01775391 0 6 C0 4.02 0 2.04 0 0 Z " fill="#070502" transform="translate(92,286)"/>
<path d="M0 0 C5 7.5 5 7.5 5 11 C8.22515763 12.73662334 11.51329166 13.8905928 15 15 C14.01 15.495 14.01 15.495 13 16 C13 16.66 13 17.32 13 18 C6.46786067 16.32898761 3.06717952 13.00459183 -0.3125 7.3125 C-2 4 -2 4 -2 2 C-1.34 2 -0.68 2 0 2 C0 1.34 0 0.68 0 0 Z " fill="#6FBF4C" transform="translate(142,139)"/>
<path d="M0 0 C0 0.66 0 1.32 0 2 C-2.31 2.66 -4.62 3.32 -7 4 C-7 4.99 -7 5.98 -7 7 C-5.68 7.33 -4.36 7.66 -3 8 C-3 8.66 -3 9.32 -3 10 C-6.375 10.125 -6.375 10.125 -10 10 C-12 8 -12 8 -12.375 5.5625 C-12 3 -12 3 -10.5 1.1875 C-6.87730459 -0.53328032 -3.98961898 -0.19948095 0 0 Z " fill="#EDAF52" transform="translate(267,296)"/>
<path d="M0 0 C3.21601838 2.51251436 3.23931563 5.6322974 4 9.5625 C1.66705225 9.60491723 -0.66702567 9.60342937 -3 9.5625 C-4 8.5625 -4 8.5625 -4.09765625 6.71484375 C-4.06510417 4.6640625 -4.03255208 2.61328125 -4 0.5625 C-2 -0.4375 -2 -0.4375 0 0 Z " fill="#070C04" transform="translate(171,129.4375)"/>
<path d="M0 0 C0.66 0 1.32 0 2 0 C3.05404945 3.98196457 2.84098656 6.98195309 2 11 C0.02 11 -1.96 11 -4 11 C-4 8.69 -4 6.38 -4 4 C-4.66 3.67 -5.32 3.34 -6 3 C-5.34 3 -4.68 3 -4 3 C-3.67 2.34 -3.34 1.68 -3 1 C-3 1.66 -3 2.32 -3 3 C-2.01 3 -1.02 3 0 3 C0 2.01 0 1.02 0 0 Z " fill="#2780B3" transform="translate(260,322)"/>
<path d="M0 0 C4.62 0 9.24 0 14 0 C11 5 11 5 8 7 C5.5 7 5.5 7 3 6 C2.01 4.02 1.02 2.04 0 0 Z " fill="#070D05" transform="translate(170,145)"/>
<path d="M0 0 C0.66 0 1.32 0 2 0 C2.66 2.97 3.32 5.94 4 9 C5.32 9.33 6.64 9.66 8 10 C8.33 8.35 8.66 6.7 9 5 C9.66 5 10.32 5 11 5 C11.36075949 9.44936709 11.36075949 9.44936709 9.8125 11.8125 C7.32762734 13.44052002 5.91288568 13.50975499 3 13 C1.1875 11.5625 1.1875 11.5625 0 9 C-0.2389237 5.98228984 -0.17422682 3.01993159 0 0 Z " fill="#78CF53" transform="translate(170,79)"/>
<path d="M0 0 C4.70588235 0.70588235 4.70588235 0.70588235 6 2 C6.125 4.5 6.125 4.5 6 7 C5 8 5 8 2.5625 8.1875 C0 8 0 8 -2 6 C-1.44444444 1.44444444 -1.44444444 1.44444444 0 0 Z " fill="#1D6087" transform="translate(247,325)"/>
<path d="M0 0 C4.70588235 0.70588235 4.70588235 0.70588235 6 2 C6.125 4.5 6.125 4.5 6 7 C5 8 5 8 2.5625 8.1875 C0 8 0 8 -2 6 C-1.44444444 1.44444444 -1.44444444 1.44444444 0 0 Z " fill="#2B8CC4" transform="translate(229,325)"/>
<path d="M0 0 C4.70588235 0.70588235 4.70588235 0.70588235 6 2 C6.125 4.5 6.125 4.5 6 7 C5 8 5 8 2.5625 8.1875 C0 8 0 8 -2 6 C-1.44444444 1.44444444 -1.44444444 1.44444444 0 0 Z " fill="#2B8CC4" transform="translate(147,325)"/>
<path d="M0 0 C4.22797927 2.90673575 4.22797927 2.90673575 6 5 C6.375 8.8125 6.375 8.8125 6 12 C5.01 12.33 4.02 12.66 3 13 C0.95204577 11.0373772 0.05023362 9.5722693 -0.19921875 6.73046875 C-0.18858877 4.48045617 -0.12958525 2.24614438 0 0 Z " fill="#060B04" transform="translate(172,77)"/>
<path d="M0 0 C-0.2642487 5.37305699 -0.2642487 5.37305699 -1 8 C-3.5625 10 -3.5625 10 -6 11 C-6.66 8.36 -7.32 5.72 -8 3 C-2.25 0 -2.25 0 0 0 Z " fill="#080F06" transform="translate(192,130)"/>
<path d="M0 0 C2.5 0.125 2.5 0.125 3.5 1.125 C3.625 4.125 3.625 4.125 3.5 7.125 C2.5 8.125 2.5 8.125 0 8.25 C-2.5 8.125 -2.5 8.125 -3.5 7.125 C-3.625 4.125 -3.625 4.125 -3.5 1.125 C-2.5 0.125 -2.5 0.125 0 0 Z " fill="#2372A0" transform="translate(273.5,324.875)"/>
<path d="M0 0 C2.5 0.125 2.5 0.125 3.5 1.125 C3.625 4.125 3.625 4.125 3.5 7.125 C2.5 8.125 2.5 8.125 0 8.25 C-2.5 8.125 -2.5 8.125 -3.5 7.125 C-3.625 4.125 -3.625 4.125 -3.5 1.125 C-2.5 0.125 -2.5 0.125 0 0 Z " fill="#2372A0" transform="translate(193.5,324.875)"/>
<path d="M0 0 C0.33 0.66 0.66 1.32 1 2 C1.66 2 2.32 2 3 2 C2.84660156 2.96035156 2.69320312 3.92070313 2.53515625 4.91015625 C1.89288765 9.40603647 1.66031389 13.90451572 1.4375 18.4375 C1.39431641 19.26443359 1.35113281 20.09136719 1.30664062 20.94335938 C1.20161967 22.96209549 1.10041441 24.98102951 1 27 C0.67 27 0.34 27 0 27 C-0.33 22.71 -0.66 18.42 -1 14 C-1.33 14 -1.66 14 -2 14 C-1.85795259 12.41632253 -1.71119847 10.83306682 -1.5625 9.25 C-1.48128906 8.36828125 -1.40007812 7.4865625 -1.31640625 6.578125 C-1.03761535 4.30649548 -0.61209423 2.20148177 0 0 Z " fill="#63AB44" transform="translate(101,121)"/>
<path d="M0 0 C3.34373475 0.55728913 6.03312999 1.35173889 9 3 C8.3125 4.9375 8.3125 4.9375 7 7 C4.5 7.875 4.5 7.875 2 8 C0 6 0 6 -0.125 2.875 C-0.08375 1.92625 -0.0425 0.9775 0 0 Z " fill="#080E05" transform="translate(194,226)"/>
<path d="M0 0 C-0.33 0.99 -0.66 1.98 -1 3 C-5.50105768 5.04102015 -9.4816192 5.21732794 -14.375 5.125 C-15.62023437 5.10695312 -16.86546875 5.08890625 -18.1484375 5.0703125 C-19.55996094 5.03550781 -19.55996094 5.03550781 -21 5 C-18.29567328 2.29567328 -16.25780287 2.43216653 -12.5 1.9375 C-8.14439654 1.3545044 -4.31822105 0 0 0 Z " fill="#76CB51" transform="translate(213,154)"/>
<path d="M0 0 C0.99 0.66 1.98 1.32 3 2 C3.40843923 4.71203652 3.13336867 7.2437142 3 10 C1.35 10.66 -0.3 11.32 -2 12 C-2.28571429 3.42857143 -2.28571429 3.42857143 0 0 Z " fill="#080F06" transform="translate(166,107)"/>
<path d="M0 0 C3.96 0 7.92 0 12 0 C12 0.33 12 0.66 12 1 C14.97 1.33 17.94 1.66 21 2 C21 2.33 21 2.66 21 3 C14.07 3 7.14 3 0 3 C0 2.01 0 1.02 0 0 Z " fill="#68B348" transform="translate(217,189)"/>
<path d="M0 0 C1.98 0 3.96 0 6 0 C6.309375 1.175625 6.309375 1.175625 6.625 2.375 C7.80676612 5.30916286 7.80676612 5.30916286 11.125 6.3125 C12.07375 6.539375 13.0225 6.76625 14 7 C11.10765685 7.82638376 9.11257569 8 6 8 C5.67 6.02 5.34 4.04 5 2 C4.34 2 3.68 2 3 2 C2.67 3.98 2.34 5.96 2 8 C1.34 8 0.68 8 0 8 C0 5.36 0 2.72 0 0 Z " fill="#2882B6" transform="translate(155,325)"/>
<path d="M0 0 C1.2065625 0.0309375 1.2065625 0.0309375 2.4375 0.0625 C2.4375 1.3825 2.4375 2.7025 2.4375 4.0625 C-0.9977048 6.35263653 -2.547831 6.24092973 -6.5625 6.0625 C-3.03077411 0.07392132 -3.03077411 0.07392132 0 0 Z " fill="#091006" transform="translate(285.5625,134.9375)"/>
<path d="M0 0 C2.97 0.495 2.97 0.495 6 1 C7.125 4.75 7.125 4.75 6 7 C3.03824877 6.38722388 1.61941217 5.74627478 -1 4 C-0.67 2.68 -0.34 1.36 0 0 Z " fill="#0E1809" transform="translate(177,123)"/>
<path d="M0 0 C0.33 1.32 0.66 2.64 1 4 C-1.97 4 -4.94 4 -8 4 C-7.67 2.68 -7.34 1.36 -7 0 C-4.3333581 -1.33332095 -2.83319697 -0.67102033 0 0 Z " fill="#191309" transform="translate(248,292)"/>
<path d="M0 0 C2.4375 0.1875 2.4375 0.1875 5 1 C5.66 2.32 6.32 3.64 7 5 C3.7 5 0.4 5 -3 5 C-1 1 -1 1 0 0 Z " fill="#1A1309" transform="translate(200,291)"/>
<path d="M0 0 C1.2065625 0.0309375 1.2065625 0.0309375 2.4375 0.0625 C2.7675 1.3825 3.0975 2.7025 3.4375 4.0625 C1.4575 4.0625 -0.5225 4.0625 -2.5625 4.0625 C-2.2325 4.7225 -1.9025 5.3825 -1.5625 6.0625 C0.0875 6.0625 1.7375 6.0625 3.4375 6.0625 C3.1075 6.7225 2.7775 7.3825 2.4375 8.0625 C0.77138095 8.105221 -0.89632885 8.10313832 -2.5625 8.0625 C-3.5625 7.0625 -3.5625 7.0625 -3.6875 4.0625 C-3.52180824 0.08589776 -3.52180824 0.08589776 0 0 Z " fill="#2F9AD8" transform="translate(124.5625,324.9375)"/>
<path d="M0 0 C1.65 0.33 3.3 0.66 5 1 C5.04254356 2.99954746 5.04080783 5.00041636 5 7 C4 8 4 8 1.4375 8.0625 C0.633125 8.041875 -0.17125 8.02125 -1 8 C-1 7.34 -1 6.68 -1 6 C0.32 6.33 1.64 6.66 3 7 C3 6.34 3 5.68 3 5 C1.68 4.67 0.36 4.34 -1 4 C-0.67 2.68 -0.34 1.36 0 0 Z " fill="#2373A1" transform="translate(177,325)"/>
<path d="M0 0 C-0.66 1.65 -1.32 3.3 -2 5 C-4.31 5 -6.62 5 -9 5 C-8.6875 3.0625 -8.6875 3.0625 -8 1 C-5.07175348 0.02391783 -3.04386724 -0.08226668 0 0 Z " fill="#140E07" transform="translate(268,298)"/>
<path d="M0 0 C0.33 0 0.66 0 1 0 C1 1.98 1 3.96 1 6 C1.66 6 2.32 6 3 6 C2.67 6.99 2.34 7.98 2 9 C-1.3 8.67 -4.6 8.34 -8 8 C-8 7.34 -8 6.68 -8 6 C-5.69 6 -3.38 6 -1 6 C-1.020625 5.195625 -1.04125 4.39125 -1.0625 3.5625 C-1 1 -1 1 0 0 Z " fill="#7CD656" transform="translate(128,169)"/>
<path d="M0 0 C0 1.32 0 2.64 0 4 C-2.64 4 -5.28 4 -8 4 C-7.625 2.0625 -7.625 2.0625 -7 0 C-4.3333581 -1.33332095 -2.83319697 -0.67102033 0 0 Z " fill="#1E160A" transform="translate(267,292)"/>
<path d="M0 0 C1.98 0 3.96 0 6 0 C4.68 0.33 3.36 0.66 2 1 C2 2.32 2 3.64 2 5 C3.32 5.33 4.64 5.66 6 6 C4.68 6 3.36 6 2 6 C2 7.32 2 8.64 2 10 C3.32 10.33 4.64 10.66 6 11 C4.02 11 2.04 11 0 11 C0 7.37 0 3.74 0 0 Z " fill="#2C91CC" transform="translate(111,322)"/>
<path d="M0 0 C0.66 0.33 1.32 0.66 2 1 C-0.82522609 5.67248931 -3.67760044 8.65996398 -8 12 C-8 7.28550411 -4.92494508 4.950638 -1.75 1.6875 C-1.1725 1.130625 -0.595 0.57375 0 0 Z " fill="#74C950" transform="translate(203,143)"/>
<path d="M0 0 C0.66 0 1.32 0 2 0 C3.38938077 1.96147874 4.7260411 3.96166576 6 6 C4.02 6 2.04 6 0 6 C0 6.66 0 7.32 0 8 C-0.99 8.33 -1.98 8.66 -3 9 C-2.01 6.03 -1.02 3.06 0 0 Z " fill="#0D1709" transform="translate(207,137)"/>
<path d="M0 0 C2.31 0 4.62 0 7 0 C8.2077558 3.62326739 7.54311128 4.64146369 6 8 C4 5.33333333 2 2.66666667 0 0 Z " fill="#0B1307" transform="translate(227,113)"/>
<path d="M0 0 C0.99 0 1.98 0 3 0 C3 0.66 3 1.32 3 2 C3.66 2 4.32 2 5 2 C4.67 3.65 4.34 5.3 4 7 C2.68 6.67 1.36 6.34 0 6 C0 4.02 0 2.04 0 0 Z " fill="#1B597C" transform="translate(238,330)"/>
<path d="M0 0 C1.99954746 -0.04254356 4.00041636 -0.04080783 6 0 C7 1 7 1 7.0625 4.5625 C7.041875 5.696875 7.02125 6.83125 7 8 C6.67 8 6.34 8 6 8 C5.67 6.02 5.34 4.04 5 2 C4.34 2 3.68 2 3 2 C2.67 3.98 2.34 5.96 2 8 C1.34 8 0.68 8 0 8 C0 5.36 0 2.72 0 0 Z " fill="#2C91CB" transform="translate(199,325)"/>
<path d="M0 0 C2.97 0.495 2.97 0.495 6 1 C5.01 1.495 5.01 1.495 4 2 C4 2.99 4 3.98 4 5 C1.69 5 -0.62 5 -3 5 C-3 4.01 -3 3.02 -3 2 C-2.01 2 -1.02 2 0 2 C0 1.34 0 0.68 0 0 Z " fill="#518B38" transform="translate(223,106)"/>
<path d="M0 0 C0 2.31 0 4.62 0 7 C-3.16115776 5.63016497 -3.9927092 5.0109362 -6 2 C-3 0 -3 0 0 0 Z " fill="#111D0C" transform="translate(163,129)"/>
<path d="M0 0 C2.31 0 4.62 0 7 0 C7.66 1.32 8.32 2.64 9 4 C8.01 4.33 7.02 4.66 6 5 C6 4.34 6 3.68 6 3 C3.69 3 1.38 3 -1 3 C-0.67 2.01 -0.34 1.02 0 0 Z " fill="#EEB053" transform="translate(281,289)"/>
<path d="M0 0 C2.31 0 4.62 0 7 0 C7.66 1.32 8.32 2.64 9 4 C8.01 4.33 7.02 4.66 6 5 C6 4.34 6 3.68 6 3 C3.69 3 1.38 3 -1 3 C-0.67 2.01 -0.34 1.02 0 0 Z " fill="#EEB053" transform="translate(181,289)"/>
<path d="M0 0 C1.9375 0.75 1.9375 0.75 4 2 C4.75 4.125 4.75 4.125 5 6 C4.01 6.66 3.02 7.32 2 8 C1.01 7.67 0.02 7.34 -1 7 C-0.67 6.34 -0.34 5.68 0 5 C0.66 5 1.32 5 2 5 C2 4.34 2 3.68 2 3 C1.34 3 0.68 3 0 3 C0 2.01 0 1.02 0 0 Z " fill="#71C34E" transform="translate(133,168)"/>
<path d="M0 0 C0.33 0 0.66 0 1 0 C1 4.29 1 8.58 1 13 C0.01 12.67 -0.98 12.34 -2 12 C-2.28571429 3.42857143 -2.28571429 3.42857143 0 0 Z " fill="#6AB649" transform="translate(294,117)"/>
<path d="M0 0 C0 0.66 0 1.32 0 2 C-3.63 2.66 -7.26 3.32 -11 4 C-10.67 3.01 -10.34 2.02 -10 1 C-6.78548731 -0.60725635 -3.56387464 -0.05748185 0 0 Z " fill="#78D053" transform="translate(217,93)"/>
<path d="M0 0 C1.98 0 3.96 0 6 0 C5.67 1.32 5.34 2.64 5 4 C3.35 4 1.7 4 0 4 C-0.33 3.34 -0.66 2.68 -1 2 C-0.67 1.34 -0.34 0.68 0 0 Z " fill="#195273" transform="translate(271,329)"/>
<path d="M0 0 C1.98 0 3.96 0 6 0 C5.67 1.32 5.34 2.64 5 4 C3.35 4 1.7 4 0 4 C-0.33 3.34 -0.66 2.68 -1 2 C-0.67 1.34 -0.34 0.68 0 0 Z " fill="#195273" transform="translate(191,329)"/>
<path d="M0 0 C0.33 0 0.66 0 1 0 C1.02708567 1.60407328 1.04643483 3.2082785 1.0625 4.8125 C1.07410156 5.70582031 1.08570313 6.59914062 1.09765625 7.51953125 C1 10 1 10 0 13 C-0.99 13.33 -1.98 13.66 -3 14 C-2.125 8.125 -2.125 8.125 -1 7 C-0.63239269 4.67182036 -0.29758419 2.3381615 0 0 Z " fill="#69B548" transform="translate(242,122)"/>
<path d="M0 0 C0.99 0 1.98 0 3 0 C3 1.98 3 3.96 3 6 C1.68 5.67 0.36 5.34 -1 5 C-0.67 3.35 -0.34 1.7 0 0 Z " fill="#030B10" transform="translate(230,326)"/>
<path d="M0 0 C0.99 0 1.98 0 3 0 C3 1.98 3 3.96 3 6 C1.68 5.67 0.36 5.34 -1 5 C-0.67 3.35 -0.34 1.7 0 0 Z " fill="#030B10" transform="translate(148,326)"/>
<path d="M0 0 C3.16115776 1.36983503 3.9927092 1.9890638 6 5 C5.67 5.99 5.34 6.98 5 8 C2.21611025 6.29374499 1.14615794 5.52373261 0.25 2.3125 C0.1675 1.549375 0.085 0.78625 0 0 Z " fill="#0B1307" transform="translate(186,118)"/>
<path d="M0 0 C1.65 0 3.3 0 5 0 C4.67 0.66 4.34 1.32 4 2 C3.34 2 2.68 2 2 2 C2 3.98 2 5.96 2 8 C1.34 8 0.68 8 0 8 C0 5.36 0 2.72 0 0 Z " fill="#277FB2" transform="translate(279,325)"/>
<path d="M0 0 C1.98 0.495 1.98 0.495 4 1 C3.67 2.32 3.34 3.64 3 5 C1.68 4.67 0.36 4.34 -1 4 C-0.67 2.68 -0.34 1.36 0 0 Z " fill="#DAA24C" transform="translate(111,281)"/>
<path d="M0 0 C0.66 0 1.32 0 2 0 C2.125 5.75 2.125 5.75 1 8 C0.34 8 -0.32 8 -1 8 C-1.04241723 5.66705225 -1.04092937 3.33297433 -1 1 C-0.67 0.67 -0.34 0.34 0 0 Z " fill="#0D1709" transform="translate(215,117)"/>
<path d="M0 0 C1.32 0.66 2.64 1.32 4 2 C3.67 2.99 3.34 3.98 3 5 C1.68 5 0.36 5 -1 5 C-0.67 3.35 -0.34 1.7 0 0 Z " fill="#DBA24C" transform="translate(170,281)"/>
<path d="M0 0 C0.33 0.66 0.66 1.32 1 2 C1.66 2 2.32 2 3 2 C2.67 3.98 2.34 5.96 2 8 C1.01 8 0.02 8 -1 8 C-0.67 5.36 -0.34 2.72 0 0 Z " fill="#6EBE4C" transform="translate(290,158)"/>
<path d="M0 0 C0.66 0.33 1.32 0.66 2 1 C2 1.99 2 2.98 2 4 C0.02 4 -1.96 4 -4 4 C-3.67 3.01 -3.34 2.02 -3 1 C-2.01 0.67 -1.02 0.34 0 0 Z " fill="#1A577A" transform="translate(126,325)"/>
<path d="M0 0 C0.99 0 1.98 0 3 0 C3 1.98 3 3.96 3 6 C2.01 6 1.02 6 0 6 C0 4.02 0 2.04 0 0 Z " fill="#030B10" transform="translate(257,326)"/>
<path d="M0 0 C0.33 0.66 0.66 1.32 1 2 C3.02463255 2.65213292 3.02463255 2.65213292 5 3 C4.01 3 3.02 3 2 3 C2 3.66 2 4.32 2 5 C0.68 4.67 -0.64 4.34 -2 4 C-2 3.01 -2 2.02 -2 1 C-1.34 0.67 -0.68 0.34 0 0 Z " fill="#68B448" transform="translate(278,139)"/>
<path d="M0 0 C-1.8125 2 -1.8125 2 -4 4 C-4.99 4 -5.98 4 -7 4 C-7 3.01 -7 2.02 -7 1 C-4.53721199 -0.231394 -2.7204945 -0.07159196 0 0 Z " fill="#14230E" transform="translate(158,122)"/>
<path d="M0 0 C0.33 0.66 0.66 1.32 1 2 C1.66 2.33 2.32 2.66 3 3 C2.34 3 1.68 3 1 3 C1.57452746 6.93075644 1.57452746 6.93075644 4 10 C2.68 10 1.36 10 0 10 C-1.125 2.25 -1.125 2.25 0 0 Z " fill="#309EDE" transform="translate(209,323)"/>
</svg>
